<svg width="31" height="31" fill="none" xmlns="http://www.w3.org/2000/svg"><path d="M16.268 27.044l9.68-9.77a6.832 6.832 0 00-.026-9.59 6.674 6.674 0 00-9.51-.024l-.923.935-.938-.946a6.666 6.666 0 00-9.497-.024c-2.616 2.642-2.604 6.937.025 9.593l9.73 9.826a1.024 1.024 0 001.46 0zM17.515 8.75a5.124 5.124 0 017.305.025 5.282 5.282 0 01.025 7.409v.003l-9.307 9.393-9.359-9.454c-2.035-2.055-2.036-5.378-.023-7.412a5.118 5.118 0 017.295.025l1.487 1.503a.775.775 0 001.103 0l1.474-1.492z" fill="#2D2D2D"/></svg>