<svg width="29" height="29" fill="none" xmlns="http://www.w3.org/2000/svg"><g clip-path="url(#clip0_1_155)"><path d="M20.14 9.667V7.29a5.638 5.638 0 10-11.278 0v5.64a.806.806 0 101.61 0v-1.652h8.862l-.57-1.611h-8.291V7.29a4.028 4.028 0 118.055 0v5.599a.806.806 0 001.611 0v-1.611h4.028v14.5H4.834v-14.5h4.263V9.667H3.223V25.85a1.539 1.539 0 001.537 1.54h19.48a1.539 1.539 0 001.538-1.539V9.667H20.14z" fill="#2D2D2D"/></g><defs><clipPath id="clip0_1_155"><path fill="#fff" d="M0 0h29v29H0z"/></clipPath></defs></svg>